# xmcd
#
# Track frame offsets:
#	150
#	20325
#	35542
#
# Disc length: 708
#
# Revision: 2
# Processed by: cddbd v1.5.1PL0 Copyright (c) Steve Scherf et al.
# Submitted via: CDex 1.51
# Normalized: r0:TDELIM( - ),TSWAP
#
DISCID=1a02c203
DTITLE=Various Artist - Snackin' Sounds
DYEAR=2000
DGENRE=Country
TTITLE0=Tracy Byrd - Something To Brag About
TTITLE1=Andy Griggs - Ain't Done Nothin' Wrong
TTITLE2=Sara Evans - Show Me The Way To Your Heart
EXTD=YEAR: 2000
EXTT0=
EXTT1=
EXTT2=
PLAYORDER=
